# xmcd
#
# Track frame offsets:
#	150
#	15730
#	29444
#	42804
#	60159
#	75024
#	91098
#	110421
#	123572
#	143696
#	157999
#	178191
#	199618
#	218607
#	235436
#	252550
#	271818
#	286633
#	299965
#	315577
#
# Disc length: 4634 seconds
#
# Revision: 4
# Processed by: cddbd v1.5.2PL0 Copyright (c) Steve Scherf et al.
# Submitted via: EZCDAudioConverter 6.0.5.1
#
DISCID=0f121814
DTITLE=George Strait - The Cowboy Rides Away: Live from AT&T Stadium
DYEAR=2014
DGENRE=Country
TTITLE0=Check Yes or No
TTITLE1=The Love Bug Featuring Vince Gill
TTITLE2=Fool Hearted Memory Featuring Jason Aldean
TTITLE3=Arkansas Dave Featuring Bubba Strait
TTITLE4=Cowboys like Us Featuring Eric Church
TTITLE5=That's What Breaking Hearts Do
TTITLE6=Marina Del Ray
TTITLE7=Here for a Good Time Featuring Sheryl Crow
TTITLE8=I Can Still Make Cheyenne
TTITLE9=Jackson Featuring Martina McBride
TTITLE10=A Showman's Life Featuring Faith Hill
TTITLE11=Murder on Music Row Featuring Alan Jackson
TTITLE12=The Chair
TTITLE13=Give It All We Got Tonight
TTITLE14=Run Featuring Miranda Lambert
TTITLE15=I'll Always Remember You
TTITLE16=Ocean Front Property Featuring Kenny Chesney
TTITLE17=Troubadour
TTITLE18=All My Ex's Live in Texas Featuring Jason Aldean, Ray Benson, Kenny C
TTITLE18=hesney, Eric Church, Sheryl Crow, Vince Gill, Faith Hill, Alan Jackso
TTITLE18=n, Miranda Lambert and Martina McBride
TTITLE19=The Cowboy Rides Away
EXTD=
EXTT0=
EXTT1=
EXTT2=
EXTT3=
EXTT4=
EXTT5=
EXTT6=
EXTT7=
EXTT8=
EXTT9=
EXTT10=
EXTT11=
EXTT12=
EXTT13=
EXTT14=
EXTT15=
EXTT16=
EXTT17=
EXTT18=
EXTT19=
PLAYORDER=
